<?xml version="1.0" encoding="UTF-8"?>
<svg id="Layer_2" xmlns="http://www.w3.org/2000/svg" version="1.1" viewBox="0 0 3754.6 1463.1">
  <!-- Generator: Adobe Illustrator 30.2.1, SVG Export Plug-In . SVG Version: 2.1.1 Build 1)  -->
  <g id="Layer_1-2">
    <g>
      <path d="M245.1,1459.2v-30.8c0-1.9-2.4-3.8-4.9-3.8h-39.2c-2.4,0-4.9-1.9-4.9-3.8v-30.8c0-1.9-2.4-3.8-4.9-3.8h-39.2c-2.4,0-4.9-1.9-4.9-3.8v-30.8c0-1.9-2.4-3.8-4.9-3.8h-39.2c-2.4,0-4.9-1.9-4.9-3.8v-69.3c0-1.9-2.4-3.8-4.9-3.8h-39.2c-2.5,0-4.9-1.9-4.9-3.8v-146.3c0-1.9-2.5-3.8-4.9-3.8H4.9c-2.5,0-4.9-1.9-4.9-3.8v-184.8c0-1.9,2.5-3.8,4.9-3.8h39.2c2.5,0,4.9-1.9,4.9-3.8v-146.3c0-1.9,2.5-3.8,4.9-3.8h39.2c2.4,0,4.9-1.9,4.9-3.8v-146.3c0-1.9,2.4-3.8,4.9-3.8h39.2c2.4,0,4.9-1.9,4.9-3.8v-69.3c0-1.9,2.4-3.8,4.9-3.8h39.2c2.4,0,4.9-1.9,4.9-3.8v-69.3c0-1.9,2.4-3.9,4.9-3.9h39.2c2.4,0,4.9-1.9,4.9-3.9v-69.3c0-1.9,2.4-3.9,4.9-3.9h39.2c2.5,0,4.9-1.9,4.9-3.9v-69.3c0-1.9,2.5-3.9,4.9-3.9h39.2c2.5,0,4.9-1.9,4.9-3.9v-30.8c0-1.9,2.5-3.9,4.9-3.9h39.2c2.5,0,4.9-1.9,4.9-3.9v-30.8c0-1.9,2.5-3.9,4.9-3.9h39.2c2.5,0,4.9-1.9,4.9-3.9v-30.8c0-1.9,2.5-3.9,4.9-3.9h39.2c2.5,0,4.9-1.9,4.9-3.9v-30.8c0-1.9,2.5-3.9,4.9-3.9h39.2c2.5,0,4.9-1.9,4.9-3.9v-30.8c0-1.9,2.5-3.8,4.9-3.8h39.2c2.5,0,4.9-1.9,4.9-3.8v-30.8c0-1.9,2.5-3.8,4.9-3.8h88.2c2.5,0,4.9-1.9,4.9-3.8v-30.8c0-1.9,2.5-3.8,4.9-3.8h88.2c2.5,0,4.9-1.9,4.9-3.8V3.8C784.2,1.9,786.6,0,789.1,0h382.3C1173.8,0,1176.3,1.9,1176.3,3.8v30.8c0,1.9,2.4,3.8,4.9,3.8h88.2c2.4,0,4.9,1.9,4.9,3.8v30.8c0,1.9,2.4,3.8,4.9,3.8h88.2c2.4,0,4.9-1.9,4.9-3.8v-30.8c0-1.9,2.4-3.8,4.9-3.8h39.2c2.4,0,4.9-1.9,4.9-3.8V3.8C1421.4,1.9,1423.8,0,1426.3,0h39.2C1467.9,0,1470.4,1.9,1470.4,3.8v107.8c0,1.9-2.4,3.8-4.9,3.8h-39.2c-2.4,0-4.9,1.9-4.9,3.8v146.3c0,1.9-2.4,3.9-4.9,3.9h-39.2c-2.4,0-4.9,1.9-4.9,3.9v146.3c0,1.9-2.4,3.9-4.9,3.9h-39.2c-2.4,0-4.9,1.9-4.9,3.9v69.3c0,1.9-2.4,3.9-4.9,3.9h-39.2c-2.4,0-4.9-1.9-4.9-3.9V234.9c0-1.9-2.4-3.9-4.9-3.9h-39.2c-2.4,0-4.9-1.9-4.9-3.9v-69.3c0-1.9-2.4-3.9-4.9-3.9h-39.2c-2.4,0-4.9-1.9-4.9-3.9v-30.8c0-1.9-2.4-3.8-4.9-3.8h-39.2c-2.4,0-4.9-1.9-4.9-3.8v-30.8c0-1.9-2.4-3.8-4.9-3.8h-333.3c-2.5,0-4.9,1.9-4.9,3.8v30.8c0,1.9-2.5,3.8-4.9,3.8h-39.2c-2.5,0-4.9,1.9-4.9,3.8v30.8c0,1.9-2.5,3.9-4.9,3.9h-39.2c-2.5,0-4.9,1.9-4.9,3.9v30.8c0,1.9-2.5,3.9-4.9,3.9h-39.2c-2.5,0-4.9,1.9-4.9,3.9v30.8c0,1.9-2.5,3.9-4.9,3.9h-39.2c-2.5,0-4.9,1.9-4.9,3.9v30.8c0,1.9-2.5,3.9-4.9,3.9h-39.2c-2.5,0-4.9,1.9-4.9,3.9v30.8c0,1.9-2.5,3.9-4.9,3.9h-39.2c-2.5,0-4.9,1.9-4.9,3.9v69.3c0,1.9-2.5,3.9-4.9,3.9h-39.2c-2.5,0-4.9,1.9-4.9,3.9v69.3c0,1.9-2.5,3.9-4.9,3.9h-39.2c-2.5,0-4.9,1.9-4.9,3.9v69.3c0,1.9-2.5,3.8-4.9,3.8h-39.2c-2.5,0-4.9,1.9-4.9,3.8v69.3c0,1.9-2.5,3.8-4.9,3.8h-39.2c-2.5,0-4.9,1.9-4.9,3.8v184.8c0,1.9-2.5,3.8-4.9,3.8h-39.2c-2.4,0-4.9,1.9-4.9,3.8v146.3c0,1.9-2.4,3.8-4.9,3.8h-39.2c-2.4,0-4.9,1.9-4.9,3.8v107.8c0,1.9,2.4,3.8,4.9,3.8h39.2c2.4,0,4.9,1.9,4.9,3.8v146.3c0,1.9,2.4,3.8,4.9,3.8h39.2c2.5,0,4.9,1.9,4.9,3.8v69.3c0,1.9,2.5,3.8,4.9,3.8h39.2c2.5,0,4.9,1.9,4.9,3.8v30.8c0,1.9,2.5,3.8,4.9,3.8h39.2c2.5,0,4.9,1.9,4.9,3.8v30.8c0,1.9,2.5,3.8,4.9,3.8h235.3c2.5,0,4.9-1.9,4.9-3.8v-30.8c0-1.9,2.5-3.8,4.9-3.8h88.2c2.5,0,4.9-1.9,4.9-3.8v-30.8c0-1.9,2.5-3.8,4.9-3.8h39.2c2.5,0,4.9-1.9,4.9-3.8v-30.8c0-1.9,2.5-3.8,4.9-3.8h39.2c2.5,0,4.9-1.9,4.9-3.8v-146.3c0-1.9,2.5-3.8,4.9-3.8h39.2c2.5,0,4.9-1.9,4.9-3.8v-107.8c0-1.9,2.5-3.8,4.9-3.8h39.2c2.5,0,4.9-1.9,4.9-3.8v-107.8c0-1.9,2.5-3.8,4.9-3.8h39.2c2.5,0,4.9-1.9,4.9-3.8v-146.3c0-1.9-2.5-3.8-4.9-3.8h-88.2c-2.5,0-4.9-1.9-4.9-3.8v-30.8c0-1.9-2.5-3.8-4.9-3.8h-88.2c-2.5,0-4.9-1.9-4.9-3.8v-30.8c0-1.9,2.5-3.8,4.9-3.8h578.4c2.4,0,4.9,1.9,4.9,3.8v30.8c0,1.9-2.4,3.8-4.9,3.8h-88.2c-2.4,0-4.9,1.9-4.9,3.8v30.8c0,1.9-2.4,3.8-4.9,3.8h-88.2c-2.4,0-4.9,1.9-4.9,3.8v146.3c0,1.9-2.4,3.8-4.9,3.8h-39.2c-2.4,0-4.9,1.9-4.9,3.8v107.8c0,1.9-2.4,3.8-4.9,3.8h-39.2c-2.4,0-4.9,1.9-4.9,3.8v107.8c0,1.9-2.4,3.8-4.9,3.8h-39.2c-2.4,0-4.9,1.9-4.9,3.8v146.3c0,1.9-2.4,3.8-4.9,3.8h-39.2c-2.5,0-4.9,1.9-4.9,3.8v107.8c0,1.9-2.5,3.8-4.9,3.8h-39.2c-2.5,0-4.9,1.9-4.9,3.8v69.3c0,1.9-2.5,3.8-4.9,3.8h-39.2c-2.5,0-4.9-1.9-4.9-3.8v-146.3c0-1.9-2.5-3.8-4.9-3.8h-39.2c-2.5,0-4.9,1.9-4.9,3.8v30.8c0,1.9-2.5,3.8-4.9,3.8h-39.2c-2.5,0-4.9,1.9-4.9,3.8v30.8c0,1.9-2.5,3.8-4.9,3.8h-39.2c-2.5,0-4.9,1.9-4.9,3.8v30.8c0,1.9-2.5,3.8-4.9,3.8h-39.2c-2.5,0-4.9,1.9-4.9,3.8v30.8c0,1.9-2.5,3.8-4.9,3.8H250c-2.4,0-4.9-1.9-4.9-3.8h0Z"/>
      <path d="M1166.6,1459.2v-30.8c0-1.9,2.4-3.8,4.9-3.8h88.2c2.4,0,4.9-1.9,4.9-3.8v-30.8c0-1.9,2.4-3.8,4.9-3.8h88.2c2.4,0,4.9-1.9,4.9-3.8v-30.8c0-1.9,2.4-3.8,4.9-3.8h39.2c2.4,0,4.9-1.9,4.9-3.8v-69.3c0-1.9,2.4-3.8,4.9-3.8h39.2c2.4,0,4.9-1.9,4.9-3.8v-146.3c0-1.9,2.4-3.8,4.9-3.8h39.2c2.4,0,4.9-1.9,4.9-3.8v-107.8c0-1.9,2.4-3.8,4.9-3.8h39.2c2.4,0,4.9-1.9,4.9-3.8v-146.3c0-1.9,2.4-3.8,4.9-3.8h39.2c2.4,0,4.9-1.9,4.9-3.8v-107.8c0-1.9,2.4-3.8,4.9-3.8h39.2c2.4,0,4.9-1.9,4.9-3.8v-146.3c0-1.9,2.4-3.8,4.9-3.8h39.2c2.4,0,4.9-1.9,4.9-3.8v-107.8c0-1.9,2.4-3.9,4.9-3.9h39.2c2.4,0,4.9-1.9,4.9-3.9v-146.3c0-1.9,2.4-3.9,4.9-3.9h39.2c2.4,0,4.9-1.9,4.9-3.9v-107.8c0-1.9,2.4-3.9,4.9-3.9h39.2c2.4,0,4.9-1.9,4.9-3.9v-107.8c0-1.9-2.4-3.8-4.9-3.8h-39.2c-2.4,0-4.9-1.9-4.9-3.8v-30.8c0-1.9-2.4-3.8-4.9-3.8h-88.2c-2.4,0-4.9-1.9-4.9-3.8V3.8C1705.7,1.9,1708.1,0,1710.6,0h970.5C2683.5,0,2686,1.9,2686,3.8v69.3c0,1.9-2.4,3.8-4.9,3.8h-39.2c-2.4,0-4.9,1.9-4.9,3.8v146.3c0,1.9-2.4,3.9-4.9,3.9h-39.2c-2.4,0-4.9,1.9-4.9,3.9v69.3c0,1.9-2.4,3.9-4.9,3.9h-39.2c-2.4,0-4.9-1.9-4.9-3.9V119.4c0-1.9-2.4-3.8-4.9-3.8h-39.2c-2.4,0-4.9-1.9-4.9-3.8v-30.8c0-1.9-2.4-3.8-4.9-3.8h-382.3c-2.4,0-4.9,1.9-4.9,3.8v30.8c0,1.9-2.4,3.8-4.9,3.8h-39.2c-2.4,0-4.9,1.9-4.9,3.8v69.3c0,1.9-2.4,3.9-4.9,3.9h-39.2c-2.4,0-4.9,1.9-4.9,3.9v107.8c0,1.9-2.4,3.9-4.9,3.9h-39.2c-2.4,0-4.9,1.9-4.9,3.9v146.3c0,1.9-2.4,3.9-4.9,3.9h-39.2c-2.4,0-4.9,1.9-4.9,3.9v107.8c0,1.9-2.4,3.8-4.9,3.8h-39.2c-2.4,0-4.9,1.9-4.9,3.8v107.8c0,1.9,2.4,3.8,4.9,3.8h284.3c2.4,0,4.9-1.9,4.9-3.8v-30.8c0-1.9,2.4-3.8,4.9-3.8h39.2c2.4,0,4.9-1.9,4.9-3.8v-30.8c0-1.9,2.4-3.8,4.9-3.8h39.2c2.4,0,4.9-1.9,4.9-3.8v-69.3c0-1.9,2.4-3.8,4.9-3.8h39.2c2.4,0,4.9-1.9,4.9-3.8v-30.8c0-1.9,2.4-3.9,4.9-3.9h39.2c2.4,0,4.9,1.9,4.9,3.9v107.8c0,1.9-2.4,3.8-4.9,3.8h-39.2c-2.4,0-4.9,1.9-4.9,3.8v107.8c0,1.9-2.4,3.8-4.9,3.8h-39.2c-2.4,0-4.9,1.9-4.9,3.8v107.8c0,1.9-2.4,3.8-4.9,3.8h-39.2c-2.4,0-4.9,1.9-4.9,3.8v69.3c0,1.9-2.4,3.8-4.9,3.8h-39.2c-2.4,0-4.9,1.9-4.9,3.8v30.8c0,1.9-2.4,3.8-4.9,3.8h-39.2c-2.4,0-4.9-1.9-4.9-3.8v-107.8c0-1.9,2.4-3.8,4.9-3.8h39.2c2.4,0,4.9-1.9,4.9-3.8v-69.3c0-1.9-2.4-3.8-4.9-3.8h-333.3c-2.4,0-4.9,1.9-4.9,3.8v69.3c0,1.9-2.4,3.8-4.9,3.8h-39.2c-2.4,0-4.9,1.9-4.9,3.8v146.3c0,1.9-2.4,3.8-4.9,3.8h-39.2c-2.4,0-4.9,1.9-4.9,3.8v107.8c0,1.9-2.4,3.8-4.9,3.8h-39.2c-2.4,0-4.9,1.9-4.9,3.8v146.3c0,1.9-2.4,3.8-4.9,3.8h-39.2c-2.4,0-4.9,1.9-4.9,3.8v107.8c0,1.9,2.4,3.8,4.9,3.8h39.2c2.4,0,4.9,1.9,4.9,3.8v30.8c0,1.9,2.4,3.8,4.9,3.8h88.2c2.4,0,4.9,1.9,4.9,3.8v30.8c0,1.9-2.4,3.8-4.9,3.8h-578.4c-2.4,0-4.9-1.9-4.9-3.8h0Z"/>
      <path d="M2235.1,1459.2v-30.8c0-1.9,2.4-3.8,4.9-3.8h88.2c2.4,0,4.9-1.9,4.9-3.8v-30.8c0-1.9,2.4-3.8,4.9-3.8h88.2c2.4,0,4.9-1.9,4.9-3.8v-30.8c0-1.9,2.4-3.8,4.9-3.8h39.2c2.4,0,4.9-1.9,4.9-3.8v-69.3c0-1.9,2.4-3.8,4.9-3.8h39.2c2.4,0,4.9-1.9,4.9-3.8v-146.3c0-1.9,2.4-3.8,4.9-3.8h39.2c2.4,0,4.9-1.9,4.9-3.8v-107.8c0-1.9,2.4-3.8,4.9-3.8h39.2c2.4,0,4.9-1.9,4.9-3.8v-146.3c0-1.9,2.4-3.8,4.9-3.8h39.2c2.4,0,4.9-1.9,4.9-3.8v-107.8c0-1.9,2.4-3.8,4.9-3.8h39.2c2.4,0,4.9-1.9,4.9-3.8v-146.3c0-1.9,2.4-3.8,4.9-3.8h39.2c2.4,0,4.9-1.9,4.9-3.8v-107.8c0-1.9,2.4-3.9,4.9-3.9h39.2c2.4,0,4.9-1.9,4.9-3.9v-146.3c0-1.9,2.4-3.9,4.9-3.9h39.2c2.4,0,4.9-1.9,4.9-3.9v-107.8c0-1.9,2.4-3.9,4.9-3.9h39.2c2.4,0,4.9-1.9,4.9-3.9v-107.8c0-1.9-2.4-3.8-4.9-3.8h-39.2c-2.4,0-4.9-1.9-4.9-3.8v-30.8c0-1.9-2.4-3.8-4.9-3.8h-88.2c-2.4,0-4.9-1.9-4.9-3.8V3.8C2774.2,1.9,2776.7,0,2779.1,0h970.5C3752.1,0,3754.5,1.9,3754.5,3.8v69.3c0,1.9-2.4,3.8-4.9,3.8h-39.2c-2.4,0-4.9,1.9-4.9,3.8v146.3c0,1.9-2.4,3.9-4.9,3.9h-39.2c-2.4,0-4.9,1.9-4.9,3.9v69.3c0,1.9-2.4,3.9-4.9,3.9h-39.2c-2.4,0-4.9-1.9-4.9-3.9V119.4c0-1.9-2.4-3.8-4.9-3.8h-39.2c-2.4,0-4.9-1.9-4.9-3.8v-30.8c0-1.9-2.4-3.8-4.9-3.8h-382.3c-2.4,0-4.9,1.9-4.9,3.8v30.8c0,1.9-2.4,3.8-4.9,3.8h-39.2c-2.4,0-4.9,1.9-4.9,3.8v69.3c0,1.9-2.4,3.9-4.9,3.9h-39.2c-2.4,0-4.9,1.9-4.9,3.9v107.8c0,1.9-2.4,3.9-4.9,3.9h-39.2c-2.4,0-4.9,1.9-4.9,3.9v146.3c0,1.9-2.4,3.9-4.9,3.9h-39.2c-2.4,0-4.9,1.9-4.9,3.9v107.8c0,1.9-2.4,3.8-4.9,3.8h-39.2c-2.4,0-4.9,1.9-4.9,3.8v107.8c0,1.9,2.4,3.8,4.9,3.8h284.3c2.4,0,4.9-1.9,4.9-3.8v-30.8c0-1.9,2.4-3.8,4.9-3.8h39.2c2.4,0,4.9-1.9,4.9-3.8v-30.8c0-1.9,2.4-3.8,4.9-3.8h39.2c2.4,0,4.9-1.9,4.9-3.8v-69.3c0-1.9,2.4-3.8,4.9-3.8h39.2c2.4,0,4.9-1.9,4.9-3.8v-30.8c0-1.9,2.4-3.9,4.9-3.9h39.2c2.4,0,4.9,1.9,4.9,3.9v107.8c0,1.9-2.4,3.8-4.9,3.8h-39.2c-2.4,0-4.9,1.9-4.9,3.8v107.8c0,1.9-2.4,3.8-4.9,3.8h-39.2c-2.4,0-4.9,1.9-4.9,3.8v107.8c0,1.9-2.4,3.8-4.9,3.8h-39.2c-2.4,0-4.9,1.9-4.9,3.8v69.3c0,1.9-2.4,3.8-4.9,3.8h-39.2c-2.4,0-4.9,1.9-4.9,3.8v30.8c0,1.9-2.4,3.8-4.9,3.8h-39.2c-2.4,0-4.9-1.9-4.9-3.8v-107.8c0-1.9,2.4-3.8,4.9-3.8h39.2c2.4,0,4.9-1.9,4.9-3.8v-69.3c0-1.9-2.4-3.8-4.9-3.8h-333.3c-2.4,0-4.9,1.9-4.9,3.8v69.3c0,1.9-2.4,3.8-4.9,3.8h-39.2c-2.4,0-4.9,1.9-4.9,3.8v146.3c0,1.9-2.4,3.8-4.9,3.8h-39.2c-2.4,0-4.9,1.9-4.9,3.8v107.8c0,1.9-2.4,3.8-4.9,3.8h-39.2c-2.4,0-4.9,1.9-4.9,3.8v146.3c0,1.9-2.4,3.8-4.9,3.8h-39.2c-2.4,0-4.9,1.9-4.9,3.8v107.8c0,1.9,2.4,3.8,4.9,3.8h39.2c2.4,0,4.9,1.9,4.9,3.8v30.8c0,1.9,2.4,3.8,4.9,3.8h88.2c2.4,0,4.9,1.9,4.9,3.8v30.8c0,1.9-2.4,3.8-4.9,3.8h-578.4c-2.4,0-4.9-1.9-4.9-3.8h0Z"/>
    </g>
  </g>
</svg>