<svg width="350" height="536" viewBox="0 0 350 536" fill="none" xmlns="http://www.w3.org/2000/svg">
<path d="M31.4389 236.49H15.5421V220.714H0V173.408H15.9176V141.877H0V94.199H15.9176V78.8162H31.4389V63.0406H47.3565V47.2856H63.2741V31.5306H95.0885V15.755H47.7529V31.5306H15.9176V47.2856H0V31.1378H15.9176V15.755H47.3565V0H95.464V15.755H206.825V31.5306H254.557V47.2856H333.707V31.5306H350V47.2856H334.103V63.0406H302.289V78.8162H254.557V63.0406H238.639V78.8162H222.742V94.5712H206.846V141.877H238.66V126.123H254.578V110.347H270.099V94.5919H286.392V110.347H270.474V141.877H254.578V173.408H239.056V189.163H222.763V173.408H238.66V157.653H190.928V204.959H175.031V220.714H159.114V236.49H143.217V252.245H111.778V268H47.3774V252.245H31.4597V236.49H31.4389ZM31.8144 141.505V126.123H47.7111V110.347H79.5255V94.5919H127.258V47.2856H111.34V31.5306H95.4432V47.2856H63.6288V63.0406H47.7111V78.8162H31.8144V94.5712H15.8968V141.485H31.8144V141.505ZM47.732 236.49V252.245H111.361V236.49H127.278V220.714H143.175V189.556H127.278V204.939H111.757V220.694H95.8395V236.469H63.2533V220.694H47.3356V204.939H31.8144V173.78H15.8968V220.694H31.8144V236.469H47.7111L47.732 236.49ZM79.5464 157.653V141.877H111.361V110.347H79.9219V126.123H48.1075V141.877H31.8144V157.653H79.5464ZM95.4432 220.714V204.959H111.34V189.184H127.258V157.281H143.154V126.495H127.258V141.877H111.34V157.653H79.901V173.408H47.7111V204.939H63.6288V220.694H95.4432V220.714ZM159.072 126.123V141.877H174.99V110.347H190.886V94.5919H206.408V78.8369H222.304V63.0613H206.783V47.3063H159.051V31.5513H127.612V47.3063H143.133V94.6126H127.612V110.368H143.133V126.143H159.03L159.072 126.123ZM159.072 189.184V157.653H143.175V189.184H159.072Z" fill="black"/>
<path d="M31.4389 504.49H15.5421V488.714H0V441.408H15.9176V409.877H0V362.199H15.9176V346.816H31.4389V331.041H47.3565V315.286H63.2741V299.531H95.0885V283.755H47.7529V299.531H15.9176V315.286H0V299.138H15.9176V283.755H47.3565V268H95.464V283.755H206.825V299.531H254.557V315.286H333.707V299.531H350V315.286H334.103V331.041H302.289V346.816H254.557V331.041H238.639V346.816H222.742V362.571H206.846V409.877H238.66V394.123H254.578V378.347H270.099V362.592H286.392V378.347H270.474V409.877H254.578V441.408H239.056V457.163H222.763V441.408H238.66V425.653H190.928V472.959H175.031V488.714H159.114V504.49H143.217V520.245H111.778V536H47.3774V520.245H31.4597V504.49H31.4389ZM31.8144 409.505V394.123H47.7111V378.347H79.5255V362.592H127.258V315.286H111.34V299.531H95.4432V315.286H63.6288V331.041H47.7111V346.816H31.8144V362.571H15.8968V409.485H31.8144V409.505ZM47.732 504.49V520.245H111.361V504.49H127.278V488.714H143.175V457.556H127.278V472.939H111.757V488.694H95.8395V504.469H63.2533V488.694H47.3356V472.939H31.8144V441.78H15.8968V488.694H31.8144V504.469H47.7111L47.732 504.49ZM79.5464 425.653V409.877H111.361V378.347H79.9219V394.123H48.1075V409.877H31.8144V425.653H79.5464ZM95.4432 488.714V472.959H111.34V457.184H127.258V425.281H143.154V394.495H127.258V409.877H111.34V425.653H79.901V441.408H47.7111V472.939H63.6288V488.694H95.4432V488.714ZM159.072 394.123V409.877H174.99V378.347H190.886V362.592H206.408V346.837H222.304V331.061H206.783V315.306H159.051V299.551H127.612V315.306H143.133V362.613H127.612V378.368H143.133V394.143H159.03L159.072 394.123ZM159.072 457.184V425.653H143.175V457.184H159.072Z" fill="black"/>
</svg>
